<?xml version="1.0" encoding="UTF-8"?>
<svg version="1.1" xmlns="http://www.w3.org/2000/svg" width="500" height="500">
<path d="M0 0 C0.83265884 0.00509583 1.66531769 0.01019165 2.52320862 0.01544189 C3.89146034 0.03921906 3.89146034 0.03921906 5.28735352 0.06347656 C6.25176865 0.07239929 7.21618378 0.08132202 8.20982361 0.09051514 C10.3223589 0.11076125 12.43485681 0.13523134 14.54730225 0.16333008 C17.99473478 0.20505128 21.44175953 0.22569472 24.8894043 0.24121094 C31.00240298 0.27126883 37.1144858 0.33369262 43.22705078 0.41162109 C45.75855245 0.4402852 48.29015119 0.46126627 50.82177734 0.47509766 C54.53211593 0.4964228 58.24139391 0.54289884 61.95141602 0.59472656 C63.08152603 0.5959552 64.21163605 0.59718384 65.37599182 0.59844971 C73.15100802 0.74449302 73.15100802 0.74449302 77.1015625 3.1171875 C80.12921533 6.59900863 80.04776629 8.73384986 80.07015991 13.28863525 C80.07876038 14.5869075 80.08736084 15.88517975 80.09622192 17.22279358 C80.10065732 18.67001303 80.10495566 20.1172329 80.10913086 21.56445312 C80.11703079 23.08208912 80.12529968 24.59972323 80.13391113 26.11735535 C80.16014528 31.10979413 80.17544081 36.10224136 80.18969727 41.09472656 C80.1950565 42.81262976 80.20043401 44.53053289 80.20582962 46.24843597 C80.22746098 53.39427081 80.24619778 60.54010338 80.25745201 67.68596268 C80.27369135 77.93015986 80.30686559 88.17397775 80.36385286 98.41803193 C80.40254657 105.61895577 80.42208405 112.81977814 80.42737257 120.02080321 C80.43102704 124.32253567 80.44305774 128.62386371 80.47547531 132.9254837 C80.50554597 136.97378245 80.51187169 141.0214319 80.50009155 145.0698185 C80.49987073 146.5541024 80.5081836 148.03841634 80.52574539 149.52259636 C80.66676888 162.12896015 80.66676888 162.12896015 77.62979126 166.07147217 C73.44537182 169.36010763 70.10140538 169.33009873 64.86369324 169.34454346 C63.6230159 169.3502536 62.38233856 169.35596375 61.10406494 169.36184692 C59.73181162 169.36309219 58.35955819 169.36421731 56.98730469 169.36523438 C55.53996149 169.36986448 54.0926195 169.3748894 52.64527893 169.38027954 C48.71541951 169.39338669 44.78557716 169.39984516 40.8556993 169.4042902 C38.39925835 169.40722354 35.94282205 169.41132884 33.48638344 169.41579437 C25.79717092 169.42946464 18.10796904 169.4391337 10.41874522 169.44299626 C1.54921875 169.44747652 -7.32015358 169.46502482 -16.18963319 169.49399686 C-23.05006691 169.51562689 -29.9104573 169.52570124 -36.77092475 169.52703738 C-40.86630825 169.52808443 -44.96154676 169.53397089 -49.0568943 169.55185699 C-52.9105886 169.56836068 -56.76402926 169.57048214 -60.61774635 169.56171799 C-62.02902914 169.56094885 -63.44032569 169.56527411 -64.85157394 169.57517624 C-80.1744878 169.67635217 -80.1744878 169.67635217 -85.9989624 164.50297546 C-87.56587829 161.18234895 -87.4854461 158.01803268 -87.44018555 154.42211914 C-87.44222992 153.64285568 -87.44427429 152.86359222 -87.44638062 152.06071472 C-87.44938438 149.48978065 -87.43092782 146.91949044 -87.41186523 144.34863281 C-87.4088075 142.56312723 -87.40693149 140.77761926 -87.40618896 138.99211121 C-87.40158887 135.25384365 -87.38717119 131.51579187 -87.36499023 127.77758789 C-87.33664667 122.9753935 -87.32577234 118.17336862 -87.32130814 113.37109852 C-87.31716135 109.68664338 -87.3073511 106.00222281 -87.29543304 102.31778526 C-87.28971985 100.54627447 -87.28496464 98.77476033 -87.28116608 97.0032444 C-87.2743267 94.53473622 -87.26070714 92.06636515 -87.24487305 89.59790039 C-87.24375519 88.85972076 -87.24263733 88.12154114 -87.2414856 87.36099243 C-87.19843108 82.31879241 -87.19843108 82.31879241 -86.08374023 81.20410156 C-83.58619882 81.0908279 -81.11734034 81.03992966 -78.61889648 81.03613281 C-77.49613564 81.03114021 -77.49613564 81.03114021 -76.35069275 81.02604675 C-74.76440039 81.02097463 -73.17809733 81.01863851 -71.59179688 81.01879883 C-69.15989654 81.01661383 -66.72845074 80.99846575 -64.29663086 80.97949219 C-62.75822096 80.97655807 -61.21980889 80.9745734 -59.68139648 80.97363281 C-58.95114761 80.9664473 -58.22089874 80.95926178 -57.46852112 80.95185852 C-52.31256331 80.97527849 -52.31256331 80.97527849 -50.08374023 83.20410156 C-50.34876758 86.38442974 -51.14647936 88.31099044 -52.77124023 91.07910156 C-54.39709548 94.20679826 -54.39709548 94.20679826 -53.58374023 97.82910156 C-51.88058634 101.66119783 -50.74101452 103.17228251 -47.08374023 105.20410156 C-42.96615544 105.63753154 -39.43099359 105.83408634 -36.08374023 103.20410156 C-33.7116321 99.68683777 -33.05426555 97.78377037 -33.27124023 93.51660156 C-33.91157507 90.09345421 -33.91157507 90.09345421 -36.08374023 87.20410156 C-36.27124023 84.57910156 -36.27124023 84.57910156 -36.08374023 82.20410156 C-35.08374023 81.20410156 -35.08374023 81.20410156 -32.39990234 81.09057617 C-31.23209229 81.09581299 -30.06428223 81.1010498 -28.86108398 81.10644531 C-27.60102539 81.10966797 -26.3409668 81.11289063 -25.04272461 81.11621094 C-23.70222915 81.12456753 -22.36173436 81.13303249 -21.02124023 81.14160156 C-19.67684082 81.14661496 -18.33243964 81.15117815 -16.98803711 81.15527344 C-13.6865859 81.1671066 -10.38515763 81.18504271 -7.08374023 81.20410156 C-7.08374023 74.93410156 -7.08374023 68.66410156 -7.08374023 62.20410156 C-8.07374023 62.69910156 -8.07374023 62.69910156 -9.08374023 63.20410156 C-14.96566345 63.87101107 -20.11767563 63.55576052 -25.32592773 60.61425781 C-29.31606109 57.41328417 -31.49314208 52.97589603 -33.08374023 48.20410156 C-33.69994138 42.04209009 -32.21620651 37.43501613 -29.08374023 32.20410156 C-25.50342102 28.71329032 -22.11280278 26.33551753 -17.06811523 26.00878906 C-15.46709961 26.04359375 -15.46709961 26.04359375 -13.83374023 26.07910156 C-12.75608398 26.09714844 -11.67842773 26.11519531 -10.56811523 26.13378906 C-9.33834961 26.16859375 -9.33834961 26.16859375 -8.08374023 26.20410156 C-8.06915771 25.48754395 -8.0545752 24.77098633 -8.03955078 24.03271484 C-7.96525023 20.79762173 -7.86853162 17.56358137 -7.77124023 14.32910156 C-7.74868164 13.20117188 -7.72612305 12.07324219 -7.70288086 10.91113281 C-7.64970703 9.29658203 -7.64970703 9.29658203 -7.59545898 7.64941406 C-7.5692749 6.65441895 -7.54309082 5.65942383 -7.51611328 4.63427734 C-7.37343018 3.83231934 -7.23074707 3.03036133 -7.08374023 2.20410156 C-4.00868 0.15406141 -3.45181064 -0.04252536 0 0 Z M-0.08374023 8.20410156 C-0.41374023 17.44410156 -0.74374023 26.68410156 -1.08374023 36.20410156 C-8.08374023 35.20410156 -8.08374023 35.20410156 -10.08374023 34.07910156 C-13.36067337 32.64544331 -15.69106698 33.31129281 -19.08374023 34.20410156 C-22.66633511 36.77422397 -24.32179917 38.91615662 -25.08374023 43.20410156 C-25.08374023 47.45551548 -24.7542776 48.98103923 -22.08374023 52.20410156 C-19.26758125 54.83251661 -16.9535421 56.02411078 -13.08374023 56.20410156 C-9.45721603 54.88800741 -9.45721603 54.88800741 -6.08374023 53.20410156 C-4.59874023 52.70910156 -4.59874023 52.70910156 -3.08374023 52.20410156 C-2.42374023 52.53410156 -1.76374023 52.86410156 -1.08374023 53.20410156 C-0.75374023 62.44410156 -0.42374023 71.68410156 -0.08374023 81.20410156 C6.18625977 81.20410156 12.45625977 81.20410156 18.91625977 81.20410156 C18.83375977 79.18285156 18.75125977 77.16160156 18.66625977 75.07910156 C18.67828485 69.5355365 18.96624744 66.36200927 22.91625977 62.20410156 C27.25873866 57.96612083 30.24780963 56.40549403 36.22875977 55.95410156 C41.80808871 56.33236115 45.51188591 57.98697755 49.72875977 61.64160156 C55.03703512 67.85986698 54.07627622 73.20327895 53.91625977 81.20410156 C60.18625977 81.20410156 66.45625977 81.20410156 72.91625977 81.20410156 C72.98399694 72.12905639 73.03905337 63.05417871 73.07169628 53.9789381 C73.08736208 49.7650788 73.10861679 45.5514012 73.14257812 41.33764648 C73.17513934 37.27223738 73.1931059 33.2070032 73.20089149 29.14147377 C73.20644086 27.58928994 73.21727731 26.03711583 73.23344994 24.48500633 C73.25518184 22.31327897 73.25822857 20.14227733 73.25683594 17.97045898 C73.26349777 16.73357834 73.27015961 15.49669769 73.27702332 14.22233582 C73.1262161 11.27937841 73.1262161 11.27937841 71.81787109 9.30249023 C68.92202235 7.62982063 66.47568805 7.84561272 63.14990234 7.86352539 C62.46671432 7.86308731 61.78352631 7.86264923 61.07963562 7.86219788 C58.82306264 7.86428674 56.56723408 7.8876212 54.31079102 7.91113281 C52.74566555 7.91672845 51.18053482 7.9209987 49.61540222 7.92399597 C45.49709553 7.93544738 41.37910652 7.96491687 37.26092529 7.99810791 C33.05818988 8.02880256 28.8554031 8.0425 24.65258789 8.05761719 C16.40698319 8.08978656 8.1616976 8.14255667 -0.08374023 8.20410156 Z M27.10375977 67.89160156 C25.35585481 71.29541647 25.37140512 74.50046936 25.91625977 78.20410156 C26.77738878 80.61808619 27.84338919 82.87177422 28.91625977 85.20410156 C28.58625977 85.86410156 28.25625977 86.52410156 27.91625977 87.20410156 C18.67625977 87.53410156 9.43625977 87.86410156 -0.08374023 88.20410156 C-0.08374023 94.47410156 -0.08374023 100.74410156 -0.08374023 107.20410156 C1.77250977 107.14222656 3.62875977 107.08035156 5.54125977 107.01660156 C11.45273479 107.04435497 15.2103946 107.555808 19.56860352 111.82128906 C23.40588133 116.02875132 24.73537665 118.80740034 25.16625977 124.51660156 C24.78800018 130.0959305 23.13338377 133.79972771 19.47875977 138.01660156 C13.67878424 142.96780018 8.38502966 142.71700787 0.91625977 143.20410156 C0.91625977 149.14410156 0.91625977 155.08410156 0.91625977 161.20410156 C10.00858081 161.24923336 19.10082782 161.28594891 28.1932354 161.30772591 C32.41491726 161.31817621 36.63651872 161.33235801 40.8581543 161.35498047 C44.93003254 161.37666459 49.00183329 161.38866079 53.0737648 161.39385605 C54.62955063 161.3975598 56.18533209 161.40479202 57.74108505 161.41556168 C59.91529351 161.43001794 62.08917918 161.432082 64.26342773 161.43115234 C65.50252899 161.43559357 66.74163025 161.44003479 68.01828003 161.4446106 C71.04334484 161.50781716 71.04334484 161.50781716 72.91625977 159.20410156 C73.21033086 156.12645235 73.21033086 156.12645235 73.14331055 152.45947266 C73.1436026 151.76667709 73.14389465 151.07388153 73.14419556 150.36009216 C73.14280008 148.06578123 73.12722896 145.7717934 73.11157227 143.47753906 C73.1078429 141.88856178 73.10499557 140.29958221 73.10299683 138.71060181 C73.0953543 134.52496002 73.07570058 130.33945666 73.05358887 126.15386963 C73.03314372 121.88417432 73.02399797 117.61445669 73.01391602 113.34472656 C72.99245518 104.96444757 72.95726808 96.58430772 72.91625977 88.20410156 C59.05625977 87.70910156 59.05625977 87.70910156 44.91625977 87.20410156 C44.42125977 85.22410156 44.42125977 85.22410156 43.91625977 83.20410156 C44.95169858 81.48915603 45.98758845 79.77447235 47.02954102 78.06347656 C48.62269135 74.72277365 48.09657794 72.62081207 46.91625977 69.20410156 C44.03810552 65.63393209 41.33929116 63.46024721 36.79125977 62.64160156 C32.66470789 63.44897041 30.15425718 65.05148328 27.10375977 67.89160156 Z M-80.08374023 89.20410156 C-80.10632048 98.01838737 -80.12467231 106.832654 -80.13555241 115.64696217 C-80.14077394 119.73966864 -80.14785841 123.83235432 -80.15917969 127.92504883 C-80.17003441 131.87373242 -80.17602257 135.822396 -80.17861748 139.77109337 C-80.18046705 141.278595 -80.18407873 142.78609552 -80.18947029 144.29358864 C-80.196715 146.40286259 -80.19772972 148.51205352 -80.19726562 150.62133789 C-80.19948624 151.82268875 -80.20170685 153.02403961 -80.20399475 154.26179504 C-80.21742002 157.26510029 -80.21742002 157.26510029 -79.08374023 160.20410156 C-76.18459112 161.65367612 -73.66945723 161.3234308 -70.4309082 161.31762695 C-69.74786621 161.31777298 -69.06482422 161.31791901 -68.36108398 161.31806946 C-66.09933313 161.31737179 -63.83766423 161.30958621 -61.57592773 161.30175781 C-60.00936935 161.29989311 -58.44281039 161.29846946 -56.87625122 161.29747009 C-52.74984125 161.29364899 -48.62346639 161.28382216 -44.49707031 161.27276611 C-40.28768387 161.26254326 -36.07829176 161.2579706 -31.86889648 161.25292969 C-23.60715982 161.24219954 -15.34545843 161.22460602 -7.08374023 161.20410156 C-6.75374023 151.96410156 -6.42374023 142.72410156 -6.08374023 133.20410156 C0.91625977 134.20410156 0.91625977 134.20410156 2.91625977 135.32910156 C6.1931929 136.76275981 8.52358652 136.09691031 11.91625977 135.20410156 C15.72816434 131.97226942 17.71630503 129.93704258 18.29125977 124.95410156 C17.79698681 120.01137198 16.37797676 118.66581856 12.91625977 115.20410156 C9.73593376 113.61393856 6.37911541 113.79709926 2.91625977 114.20410156 C1.22633998 115.16428326 -0.44583312 116.1576609 -2.08374023 117.20410156 C-3.40374023 116.87410156 -4.72374023 116.54410156 -6.08374023 116.20410156 C-6.41374023 107.29410156 -6.74374023 98.38410156 -7.08374023 89.20410156 C-13.35374023 89.20410156 -19.62374023 89.20410156 -26.08374023 89.20410156 C-26.00124023 90.85410156 -25.91874023 92.50410156 -25.83374023 94.20410156 C-25.84795835 99.72783774 -26.68498936 103.7836403 -30.08374023 108.20410156 C-35.62593829 112.70713748 -40.01802091 113.78325888 -47.08374023 113.20410156 C-52.00723842 111.74867558 -55.30624156 110.15653744 -58.58374023 106.14160156 C-61.55879398 100.31545464 -61.15974439 95.66445516 -61.08374023 89.20410156 C-67.35374023 89.20410156 -73.62374023 89.20410156 -80.08374023 89.20410156 Z " fill="#E11313" transform="translate(253.083740234375,113.7958984375)"/>
<path d="M0 0 C2.80281067 0.82847595 2.80281067 0.82847595 5.71411133 2.00366211 C7.36030205 2.65950539 7.36030205 2.65950539 9.03974915 3.32859802 C10.20870224 3.80668411 11.37765533 4.2847702 12.58203125 4.77734375 C13.79195236 5.26328506 15.00187347 5.74922638 16.24845886 6.24989319 C18.80028766 7.27519442 21.34930047 8.30709703 23.89624023 9.34448242 C27.16573142 10.67612277 30.43964366 11.99642676 33.71541309 13.31253719 C36.83910031 14.567983 39.9606246 15.82873719 43.08203125 17.08984375 C44.2611055 17.56590561 45.44017975 18.04196747 46.65498352 18.53245544 C47.7366832 18.97283646 48.81838287 19.41321747 49.93286133 19.86694336 C50.88961258 20.25555038 51.84636383 20.64415741 52.83210754 21.04454041 C55 22 55 22 56 23 C55.55694074 28.83615995 53.77226738 33.83746651 51.625 39.25 C51.32078125 40.05179688 51.0165625 40.85359375 50.703125 41.6796875 C50.40148437 42.45054688 50.09984375 43.22140625 49.7890625 44.015625 C49.51787598 44.70946289 49.24668945 45.40330078 48.96728516 46.11816406 C47.91469835 48.16595282 46.70199092 49.46623259 45 51 C41.98901788 49.99633929 40.22683855 49.24879067 38.0625 46.875 C36.0783834 44.71887015 36.0783834 44.71887015 32.9375 44.5625 C30.05683 44.7819367 30.05683 44.7819367 28.1875 46.1875 C26.66181318 48.51617989 26.20322467 50.2225962 26 53 C26.97730219 55.70637529 27.40512445 56.70256222 30 58 C31.70363822 58.22622081 33.41328701 58.40888473 35.125 58.5625 C36.03507812 58.64628906 36.94515625 58.73007813 37.8828125 58.81640625 C38.58148438 58.87699219 39.28015625 58.93757813 40 59 C41.72987456 65.69067887 39.85769629 70.10011439 37.1875 76.3125 C36.81818359 77.21806641 36.44886719 78.12363281 36.06835938 79.05664062 C33.31533004 85.68466996 33.31533004 85.68466996 31 88 C26.38754631 87.63234065 22.40064781 86.13903331 18.125 84.4375 C16.97257812 83.98246094 15.82015625 83.52742188 14.6328125 83.05859375 C13.32957031 82.53458984 13.32957031 82.53458984 12 82 C11.8659375 82.93457031 11.731875 83.86914062 11.59375 84.83203125 C10.85554217 88.77075854 9.94521907 90.27567236 7 93 C1.5743018 95.91400224 -3.08171638 96.49836251 -8.9921875 94.7890625 C-13.43479547 93.04313485 -15.47609978 90.89063037 -17.875 86.8125 C-19.43313675 81.53214767 -19.28269927 76.77043968 -16.94921875 71.73046875 C-16.63597656 71.15941406 -16.32273438 70.58835937 -16 70 C-16.65226562 69.81824219 -17.30453125 69.63648438 -17.9765625 69.44921875 C-30.01242236 65.98757764 -30.01242236 65.98757764 -33 63 C-32.5569707 57.39326322 -30.93168096 52.68203421 -28.83203125 47.49609375 C-28.51473557 46.69575211 -28.19743988 45.89541046 -27.87052917 45.07081604 C-26.858314 42.52347005 -25.8353877 39.98057626 -24.8125 37.4375 C-24.14452184 35.7574239 -23.47719855 34.07708727 -22.81054688 32.39648438 C-21.19803792 28.340768 -19.56159898 24.29531587 -17.91314697 20.25408936 C-17.04444922 18.10972223 -16.19535097 15.95848558 -15.34912109 13.80517578 C-14.84162512 12.54817737 -14.33337484 11.29148313 -13.82421875 10.03515625 C-13.39584717 8.95758057 -12.96747559 7.88000488 -12.52612305 6.76977539 C-9.40662357 1.1081658 -6.31545207 -0.44893628 0 0 Z M-4 8 C-8.35958084 17.14667349 -12.07798762 26.53073911 -15.78588867 35.95532227 C-16.82329777 38.58992196 -17.86746009 41.22177957 -18.91210938 43.85351562 C-19.57332025 45.52848657 -20.23414219 47.20361112 -20.89453125 48.87890625 C-21.20695267 49.66527969 -21.51937408 50.45165314 -21.84126282 51.26185608 C-23.43107845 55.01702107 -23.43107845 55.01702107 -24 59 C-21.2100561 60.17094005 -18.41821403 61.33690927 -15.625 62.5 C-14.8309375 62.83386719 -14.036875 63.16773438 -13.21875 63.51171875 C-12.45820313 63.82753906 -11.69765625 64.14335937 -10.9140625 64.46875 C-10.2123291 64.76201172 -9.5105957 65.05527344 -8.78759766 65.35742188 C-7.00291439 66.11275781 -7.00291439 66.11275781 -5 66 C-4.6875 68.1875 -4.6875 68.1875 -5 71 C-6.66666667 72.66666667 -8.33333333 74.33333333 -10 76 C-10.97460224 79.18370066 -11.28612316 81.06359692 -10.3125 84.25 C-8.66507222 86.44657038 -7.63550724 87.19470612 -5 88 C-1.85232992 87.80728551 0.23824467 87.55161593 2.8125 85.6875 C4.89052729 82.73451386 5 80.40130063 5 76.8125 C5 74 5 74 6 73 C11.14502339 73.46065153 15.60925405 74.7691515 20.4375 76.5625 C21.67371094 77.01753906 22.90992188 77.47257812 24.18359375 77.94140625 C25.57771484 78.46541016 25.57771484 78.46541016 27 79 C27.67354499 77.56570999 28.33859701 76.12742943 29 74.6875 C29.37125 73.88699219 29.7425 73.08648437 30.125 72.26171875 C31.18040667 69.93786041 31.18040667 69.93786041 31 67 C30.37351563 66.82984375 29.74703125 66.6596875 29.1015625 66.484375 C28.28429687 66.24203125 27.46703125 65.9996875 26.625 65.75 C25.81289062 65.51796875 25.00078125 65.2859375 24.1640625 65.046875 C20.52559297 63.28674894 20.12471067 60.34787714 18.8125 56.6875 C17.61551168 51.25501457 18.12694835 47.68143281 20.6875 42.75 C23.65963475 39.21556949 26.28720099 37.34181267 30.953125 36.75390625 C35.33307008 36.6118088 38.89769035 37.35907614 43 39 C44.32 35.37 45.64 31.74 47 28 C41.29210483 25.06005199 35.53455038 22.49087142 29.57421875 20.109375 C28.70481155 19.75989807 27.83540436 19.41042114 26.93965149 19.050354 C25.11761291 18.3192571 23.29486345 17.58992955 21.47143555 16.86230469 C18.67563798 15.7452606 15.88366241 14.61901742 13.09179688 13.4921875 C11.31532771 12.78069161 9.53864255 12.06973472 7.76171875 11.359375 C6.92734787 11.02194275 6.09297699 10.6845105 5.23332214 10.33685303 C4.45854019 10.02943176 3.68375824 9.7220105 2.88549805 9.40527344 C2.20569382 9.13309998 1.52588959 8.86092651 0.82548523 8.58050537 C-1.15722728 7.84847659 -1.15722728 7.84847659 -4 8 Z " fill="#E11313" transform="translate(169,83)"/>
<path d="M0 0 C5.01564567 2.81180136 8.73687525 6.68418475 10.625 12.15625 C11.46858884 18.7914007 11.81002862 25.62121215 7.625 31.15625 C3.32413161 35.85534694 -0.95006773 38.61982302 -7.375 39.15625 C-10.88390532 39.03247909 -14.19247819 38.7475109 -17.375 37.15625 C-17.705 41.77625 -18.035 46.39625 -18.375 51.15625 C-22.005 51.15625 -25.635 51.15625 -29.375 51.15625 C-29.375 34.32625 -29.375 17.49625 -29.375 0.15625 C-26.735 0.15625 -24.095 0.15625 -21.375 0.15625 C-21.375 0.81625 -21.375 1.47625 -21.375 2.15625 C-20.01375 1.41375 -20.01375 1.41375 -18.625 0.65625 C-12.77432824 -1.81218758 -6.00263658 -2.13251563 0 0 Z M-17.375 12.15625 C-19.08957905 15.03986023 -19.38240093 16.80100538 -19.3125 20.15625 C-18.08994428 24.06842829 -16.6670147 25.72302174 -13.375 28.15625 C-9.07225091 28.84776325 -7.16554688 28.67182405 -3.5 26.28125 C-0.77455109 23.55580109 -0.42830131 22.72124391 -0.0625 18.84375 C-0.42375942 14.58088889 -1.39492054 13.13632946 -4.375 10.15625 C-9.10496212 7.79126894 -13.4096869 8.96197001 -17.375 12.15625 Z " fill="#E11313" transform="translate(159.375,324.84375)"/>
<path d="M0 0 C2.87839523 1.71987101 4.97458143 3.1520548 6.4375 6.25 C6.95304117 8.9308141 7.21001179 11.52014153 7.4375 14.25 C3.72668829 14.54244576 0.13890091 14.70087886 -3.5625 14.25 C-6.375 11.6875 -6.375 11.6875 -8.5625 9.25 C-11.81288489 9.30392193 -11.81288489 9.30392193 -14.5625 10.25 C-14.8925 11.57 -15.2225 12.89 -15.5625 14.25 C-14.469375 14.6625 -13.37625 15.075 -12.25 15.5 C-11.52554688 15.77714844 -10.80109375 16.05429687 -10.0546875 16.33984375 C-8.30415498 16.97914481 -6.53615675 17.57162567 -4.7578125 18.12890625 C1.34878042 20.10651561 5.36989449 21.43212748 8.4375 27.25 C9.32105341 32.63967581 9.14295922 36.83908156 6.6875 41.75 C2.93748859 45.91667934 0.08228585 48.04500389 -5.63671875 48.48828125 C-19.28847968 48.7686958 -19.28847968 48.7686958 -24.5625 44.25 C-27.2949031 41.02576434 -28.50238917 38.07652387 -28.8125 33.8125 C-28.73 32.966875 -28.6475 32.12125 -28.5625 31.25 C-24.85578358 30.96680435 -21.25843823 30.78731921 -17.5625 31.25 C-15.8125 33.6875 -15.8125 33.6875 -14.5625 36.25 C-10.66914693 37.22333827 -8.38396654 37.52382218 -4.5625 36.25 C-4.2325 34.6 -3.9025 32.95 -3.5625 31.25 C-5.2021875 30.63125 -5.2021875 30.63125 -6.875 30 C-7.59816406 29.72542969 -8.32132813 29.45085937 -9.06640625 29.16796875 C-10.83499631 28.5175483 -12.61513867 27.89815516 -14.40234375 27.30078125 C-15.36269531 26.97464844 -16.32304688 26.64851563 -17.3125 26.3125 C-18.21484375 26.01472656 -19.1171875 25.71695312 -20.046875 25.41015625 C-23.62440727 23.76026947 -25.87027083 21.79086159 -27.49609375 18.171875 C-28.63876456 13.24687524 -28.77292512 9.65014915 -26.6875 4.9765625 C-21.27843866 -3.32484413 -8.24844949 -3.90958108 0 0 Z " fill="#E11313" transform="translate(114.5625,314.75)"/>
<path d="M0 0 C0.763125 0.495 1.52625 0.99 2.3125 1.5 C2.6425 0.84 2.9725 0.18 3.3125 -0.5 C6.2825 -0.5 9.2525 -0.5 12.3125 -0.5 C12.3125 11.71 12.3125 23.92 12.3125 36.5 C3.3125 36.5 3.3125 36.5 1.3125 35.5 C-0.01868381 35.97103427 -1.32881212 36.50230307 -2.625 37.0625 C-8.31426682 39.04137542 -13.0549298 38.50798575 -18.6875 36.5 C-24.04572012 33.42145899 -27.01919571 29.48626833 -28.6875 23.5 C-29.54327552 16.35427445 -28.99524176 10.41615183 -24.6875 4.5 C-17.86539539 -2.14717885 -8.7699014 -3.56741752 0 0 Z M-15.6875 11.5 C-18.1790904 15.2373856 -18.14543285 17.07331583 -17.6875 21.5 C-15.89187595 24.25329021 -14.63495078 26.02627461 -11.6875 27.5 C-7.73953426 27.8724496 -5.35709967 27.84935635 -1.8125 26 C0.65399958 23.09823578 1.27585048 21.28265596 1.5 17.53515625 C1.16100863 13.85568745 -0.11280359 12.07469641 -2.6875 9.5 C-7.66987293 7.65237004 -11.52437024 8.0715402 -15.6875 11.5 Z " fill="#E11313" transform="translate(345.6875,325.5)"/>
<path d="M0 0 C9.9 0 19.8 0 30 0 C30 3.3 30 6.6 30 10 C24.06 10 18.12 10 12 10 C12 12.97 12 15.94 12 19 C17.28 19 22.56 19 28 19 C28 22.3 28 25.6 28 29 C22.72 29 17.44 29 12 29 C12 31.97 12 34.94 12 38 C18.27 38 24.54 38 31 38 C31 41.3 31 44.6 31 48 C20.77 48 10.54 48 0 48 C0 32.16 0 16.32 0 0 Z " fill="#E11313" transform="translate(383,314)"/>
<path d="M0 0 C5.35224142 3.14481982 8.59463027 7.15498457 10.57421875 13.09375 C10.57421875 16.06375 10.57421875 19.03375 10.57421875 22.09375 C1.66421875 22.09375 -7.24578125 22.09375 -16.42578125 22.09375 C-14.08265068 27.20951278 -14.08265068 27.20951278 -10.55078125 28.09375 C-6.89154373 28.09375 -5.32817724 27.24981559 -2.42578125 25.09375 C-2.09578125 24.76375 -1.76578125 24.43375 -1.42578125 24.09375 C0.42709377 24.02148498 2.28255753 24.0099378 4.13671875 24.03125 C5.14863281 24.04027344 6.16054687 24.04929687 7.203125 24.05859375 C7.98558594 24.07019531 8.76804688 24.08179688 9.57421875 24.09375 C9.04382026 27.80653942 8.25250233 29.97517736 5.76171875 32.78125 C5.26027344 33.36261719 4.75882813 33.94398438 4.2421875 34.54296875 C0.3445993 38.16672171 -4.20728011 39.00835634 -9.42578125 39.09375 C-14.89987567 38.44792987 -19.12773152 36.61033614 -23.42578125 33.09375 C-27.56223867 27.72753496 -28.85776356 23.27803741 -28.76953125 16.60546875 C-28.05495023 11.38415516 -25.71040131 6.26413906 -21.86328125 2.609375 C-15.62603307 -1.69432625 -7.11248412 -2.65715993 0 0 Z M-15.42578125 11.09375 C-15.75578125 12.08375 -16.08578125 13.07375 -16.42578125 14.09375 C-11.14578125 14.09375 -5.86578125 14.09375 -0.42578125 14.09375 C-2.48661496 9.79164432 -2.48661496 9.79164432 -6.42578125 8.09375 C-10.72019923 8.09375 -12.04710478 8.62822933 -15.42578125 11.09375 Z " fill="#E11313" transform="translate(202.42578125,324.90625)"/>
<path d="M0 0 C4.16353836 2.43380113 6.76051156 6.06433615 8.5625 10.5 C8.5625 11.82 8.5625 13.14 8.5625 14.5 C4.85201479 14.79242003 1.26349913 14.95211069 -2.4375 14.5 C-4.14336575 12.87347684 -5.8152546 11.20993434 -7.4375 9.5 C-10.34211754 9.07845511 -12.70971666 9.43952268 -15.4375 10.5 C-17.69801003 12.51742082 -17.69801003 12.51742082 -18.4375 15.5 C-18.36873623 19.41953479 -17.98921252 21.70308192 -15.75 24.9375 C-12.66016708 27.02522494 -11.0994192 27.1725974 -7.4375 26.5 C-6.73625 25.675 -6.035 24.85 -5.3125 24 C-1.26884901 20.48378174 1.92603181 21.10521546 7.11328125 21.32421875 C7.92152344 21.38222656 8.72976563 21.44023437 9.5625 21.5 C8.10178654 28.13960665 5.66709549 32.49926069 -0.25 36.3125 C-7.05470963 38.8475879 -12.69027401 39.03897693 -19.4375 36.5 C-24.87633821 33.94054673 -27.10692194 30.46945359 -29.51953125 25.15234375 C-31.46583131 19.52877889 -31.25274943 14.7606476 -28.875 9.3125 C-22.97117692 -1.23004122 -11.17430225 -4.84077598 0 0 Z " fill="#E11313" transform="translate(247.4375,325.5)"/>
<path d="M0 0 C0.99 0 1.98 0 3 0 C3 3.3 3 6.6 3 10 C6.3 10 9.6 10 13 10 C13 12.97 13 15.94 13 19 C9.7 19 6.4 19 3 19 C3.14100857 21.27113803 3.28796755 23.54190725 3.4375 25.8125 C3.51871094 27.07707031 3.59992188 28.34164063 3.68359375 29.64453125 C3.87184547 32.99181893 3.87184547 32.99181893 5 36 C7.10584438 36.80563638 7.10584438 36.80563638 9.5625 37.1875 C10.38878906 37.34605469 11.21507812 37.50460937 12.06640625 37.66796875 C12.70449219 37.77753906 13.34257812 37.88710938 14 38 C14 40.97 14 43.94 14 47 C0.04586039 47.86018669 0.04586039 47.86018669 -3.75 44.875 C-8.12377787 39.28628383 -8.27484106 33.92547875 -8.125 27.125 C-8.11597656 26.34125 -8.10695313 25.5575 -8.09765625 24.75 C-8.07428063 22.83319945 -8.03841653 20.91655809 -8 19 C-9.98 19 -11.96 19 -14 19 C-13.67600909 13.61365106 -10.57443919 10.91503557 -7 7.25 C-6.44054687 6.66089844 -5.88109375 6.07179688 -5.3046875 5.46484375 C-3.55428037 3.62564786 -1.79544629 1.79544629 0 0 Z " fill="#E11313" transform="translate(272,315)"/>
<path d="M0 0 C0 3.63 0 7.26 0 11 C-2.27864583 11.1953125 -4.55729167 11.390625 -6.8359375 11.5859375 C-9.20334191 11.82892588 -9.20334191 11.82892588 -11 14 C-12.40061324 18.77692595 -12.33763474 23.8691507 -12.5625 28.8125 C-12.60568359 29.69615234 -12.64886719 30.57980469 -12.69335938 31.49023438 C-12.79891536 33.65999623 -12.89991071 35.8299791 -13 38 C-16.3 38 -19.6 38 -23 38 C-23 25.79 -23 13.58 -23 1 C-20.69 1 -18.38 1 -16 1 C-15.34 1.66 -14.68 2.32 -14 3 C-13.40832031 2.7834375 -12.81664062 2.566875 -12.20703125 2.34375 C-11.02173828 1.92609375 -11.02173828 1.92609375 -9.8125 1.5 C-9.03519531 1.2215625 -8.25789063 0.943125 -7.45703125 0.65625 C-5 0 -5 0 0 0 Z " fill="#E11313" transform="translate(315,324)"/>
<path d="M0 0 C0.66 0 1.32 0 2 0 C2 0.66 2 1.32 2 2 C3.94603274 2.59070014 3.94603274 2.59070014 6 3 C6.33 2.67 6.66 2.34 7 2 C8.66617115 1.95936168 10.33388095 1.957279 12 2 C14.08351471 5.90659009 14.13112345 7.75828706 13 12 C9.71303767 12.79953138 8.28976808 13.09658936 5 12 C3.33378384 11.96125079 1.66605828 11.9549714 0 12 C-0.38897161 10.37828761 -0.76078298 8.75245075 -1.125 7.125 C-1.43824219 5.76761719 -1.43824219 5.76761719 -1.7578125 4.3828125 C-1.83773437 3.59648437 -1.91765625 2.81015625 -2 2 C-1.34 1.34 -0.68 0.68 0 0 Z M2 4 C2 5.98 2 7.96 2 10 C4.97 10 7.94 10 11 10 C10.16666667 7.83333333 10.16666667 7.83333333 8 7 C6 6 6 6 5 4 C4.01 4 3.02 4 2 4 Z M8 4 C8.33 4.66 8.66 5.32 9 6 C9.66 6 10.32 6 11 6 C11 5.34 11 4.68 11 4 C10.01 4 9.02 4 8 4 Z " fill="#E11313" transform="translate(191,399)"/>
<path d="M0 0 C4.62 0 9.24 0 14 0 C15.60725635 3.21451269 15.05748185 6.43612536 15 10 C14.01 10 13.02 10 12 10 C12 7.36 12 4.72 12 2 C11.01 2.495 11.01 2.495 10 3 C9.59270772 5.32156597 9.25561323 7.6568787 9 10 C8.01 10 7.02 10 6 10 C5.67 7.69 5.34 5.38 5 3 C4.67 3 4.34 3 4 3 C3.67 5.31 3.34 7.62 3 10 C2.01 10 1.02 10 0 10 C0 6.7 0 3.4 0 0 Z " fill="#E11313" transform="translate(308,401)"/>
<path d="M0 0 C1.65 0 3.3 0 5 0 C6 4.75 6 4.75 6 7 C6.66 7 7.32 7 8 7 C8.33 8.98 8.66 10.96 9 13 C5.30458414 13.95024979 2.69541586 13.95024979 -1 13 C-1.79953138 9.71303767 -2.09658936 8.28976808 -1 5 C-0.65179959 3.33637583 -0.31595508 1.67004829 0 0 Z M2 2 C2.33 2.99 2.66 3.98 3 5 C3.33 4.01 3.66 3.02 4 2 C3.34 2 2.68 2 2 2 Z M1 8 C1 8.99 1 9.98 1 11 C1.99 10.67 2.98 10.34 4 10 C3.01 9.34 2.02 8.68 1 8 Z " fill="#E11313" transform="translate(212,398)"/>
<path d="M0 0 C0.66 0 1.32 0 2 0 C2 0.66 2 1.32 2 2 C2.99 2 3.98 2 5 2 C5 2.66 5 3.32 5 4 C4.01 4 3.02 4 2 4 C2 5.98 2 7.96 2 10 C2.99 10 3.98 10 5 10 C5 10.66 5 11.32 5 12 C3.33388095 12.042721 1.66617115 12.04063832 0 12 C-1 11 -1 11 -1.0625 7.4375 C-1.041875 6.303125 -1.02125 5.16875 -1 4 C-1.99 4.33 -2.98 4.66 -4 5 C-4.33 7.31 -4.66 9.62 -5 12 C-5.99 12 -6.98 12 -8 12 C-8 8.7 -8 5.4 -8 2 C-6.865625 1.855625 -5.73125 1.71125 -4.5625 1.5625 C-1.19222799 1.38828522 -1.19222799 1.38828522 0 0 Z " fill="#E11313" transform="translate(274,399)"/>
<path d="M0 0 C0 3.3 0 6.6 0 10 C-6.4 11.35384615 -6.4 11.35384615 -9.4375 9.5625 C-9.953125 9.046875 -10.46875 8.53125 -11 8 C-10.74438677 5.6568787 -10.40729228 3.32156597 -10 1 C-6.78548731 -0.60725635 -3.56387464 -0.05748185 0 0 Z M-7 2 C-7.33 3.65 -7.66 5.3 -8 7 C-6.68 7.33 -5.36 7.66 -4 8 C-3.67 6.35 -3.34 4.7 -3 3 C-4.32 2.67 -5.64 2.34 -7 2 Z " fill="#E11313" transform="translate(290,401)"/>
<path d="M0 0 C3.0625 0.125 3.0625 0.125 5.0625 1.125 C5.6875 3.6875 5.6875 3.6875 6.0625 6.125 C4.7425 6.455 3.4225 6.785 2.0625 7.125 C3.0525 7.125 4.0425 7.125 5.0625 7.125 C4.7325 8.115 4.4025 9.105 4.0625 10.125 C1.8125 10.8125 1.8125 10.8125 -0.9375 11.125 C-3.25 9.6875 -3.25 9.6875 -4.9375 8.125 C-3.92466453 0.167007 -3.92466453 0.167007 0 0 Z M-0.9375 2.125 C-1.2675 2.785 -1.5975 3.445 -1.9375 4.125 C-0.2875 4.125 1.3625 4.125 3.0625 4.125 C1.7425 3.465 0.4225 2.805 -0.9375 2.125 Z " fill="#E11313" transform="translate(258.9375,400.875)"/>
<path d="M0 0 C0.99 0.103125 1.98 0.20625 3 0.3125 C5 3.3125 5 3.3125 5 6.3125 C3.68 6.6425 2.36 6.9725 1 7.3125 C2.32 7.6425 3.64 7.9725 5 8.3125 C3.3125 9.875 3.3125 9.875 1 11.3125 C-1.625 11.1875 -1.625 11.1875 -4 10.3125 C-6 7.3125 -6 7.3125 -5.75 4.75 C-4.63712083 1.13314268 -3.78270321 0.39403158 0 0 Z M-1 2.3125 C-1.66 2.9725 -2.32 3.6325 -3 4.3125 C-1.35 4.3125 0.3 4.3125 2 4.3125 C1.67 3.6525 1.34 2.9925 1 2.3125 C0.34 2.3125 -0.32 2.3125 -1 2.3125 Z " fill="#E11313" transform="translate(330,400.6875)"/>
<path d="M0 0 C3 0.25 3 0.25 5 2.25 C5 3.57 5 4.89 5 6.25 C2.69 6.25 0.38 6.25 -2 6.25 C-2 6.91 -2 7.57 -2 8.25 C1.465 7.755 1.465 7.755 5 7.25 C4.67 8.24 4.34 9.23 4 10.25 C1.02211118 11.15991047 -0.43497994 11.50960381 -3.3125 10.1875 C-5 8.25 -5 8.25 -5.375 5.1875 C-4.85657033 1.12646757 -4.08939484 0.3407829 0 0 Z M-1 2.25 C-1.33 2.91 -1.66 3.57 -2 4.25 C-0.68 3.92 0.64 3.59 2 3.25 C1.01 2.92 0.02 2.59 -1 2.25 Z " fill="#E11313" transform="translate(172,400.75)"/>
<path d="M0 0 C2.64 0 5.28 0 8 0 C8 0.99 8 1.98 8 3 C6.02 3 4.04 3 2 3 C2 3.66 2 4.32 2 5 C3.65 5 5.3 5 7 5 C7 5.99 7 6.98 7 8 C5.35 8 3.7 8 2 8 C2 8.99 2 9.98 2 11 C3.98 11 5.96 11 8 11 C8 11.66 8 12.32 8 13 C5.36 13 2.72 13 0 13 C0 8.71 0 4.42 0 0 Z " fill="#E11313" transform="translate(227,398)"/>
<path d="M0 0 C2.64 0 5.28 0 8 0 C8 0.99 8 1.98 8 3 C6.02 3 4.04 3 2 3 C2 3.66 2 4.32 2 5 C3.65 5 5.3 5 7 5 C7 5.99 7 6.98 7 8 C5.35 8 3.7 8 2 8 C2 8.99 2 9.98 2 11 C3.98 11 5.96 11 8 11 C8 11.66 8 12.32 8 13 C5.36 13 2.72 13 0 13 C0 8.71 0 4.42 0 0 Z " fill="#E11313" transform="translate(148,398)"/>
<path d="M0 0 C6.0546875 -0.1953125 6.0546875 -0.1953125 8 0 C10 2 10 2 10.1953125 3.9453125 C10.13020833 5.96354167 10.06510417 7.98177083 10 10 C9.01 10 8.02 10 7 10 C6.67 7.69 6.34 5.38 6 3 C5.34 3 4.68 3 4 3 C3.67 5.31 3.34 7.62 3 10 C2.01 10 1.02 10 0 10 C0 6.7 0 3.4 0 0 Z " fill="#E11313" transform="translate(236,401)"/>
<path d="M0 0 C6.15234375 -0.09765625 6.15234375 -0.09765625 8 0 C9 1 9 1 9.09765625 3.06640625 C9.08605469 3.89011719 9.07445312 4.71382813 9.0625 5.5625 C9.05347656 6.38878906 9.04445313 7.21507812 9.03515625 8.06640625 C9.02355469 8.70449219 9.01195312 9.34257812 9 10 C8.34 10 7.68 10 7 10 C6.67 7.69 6.34 5.38 6 3 C5.34 3 4.68 3 4 3 C3.67 5.31 3.34 7.62 3 10 C2.01 10 1.02 10 0 10 C0 6.7 0 3.4 0 0 Z " fill="#E11313" transform="translate(336,401)"/>
<path d="M0 0 C6.15234375 -0.09765625 6.15234375 -0.09765625 8 0 C9 1 9 1 9.09765625 3.06640625 C9.08605469 3.89011719 9.07445312 4.71382813 9.0625 5.5625 C9.05347656 6.38878906 9.04445313 7.21507812 9.03515625 8.06640625 C9.02355469 8.70449219 9.01195312 9.34257812 9 10 C8.34 10 7.68 10 7 10 C6.67 7.36 6.34 4.72 6 2 C2.68539295 3.70892499 2.68539295 3.70892499 2.3125 7.125 C2.209375 8.07375 2.10625 9.0225 2 10 C1.34 10 0.68 10 0 10 C0 6.7 0 3.4 0 0 Z " fill="#E11313" transform="translate(297,401)"/>
<path d="M0 0 C6.15234375 -0.09765625 6.15234375 -0.09765625 8 0 C9 1 9 1 9.09765625 3.06640625 C9.08605469 3.89011719 9.07445312 4.71382813 9.0625 5.5625 C9.05347656 6.38878906 9.04445312 7.21507812 9.03515625 8.06640625 C9.02355469 8.70449219 9.01195312 9.34257812 9 10 C8.34 10 7.68 10 7 10 C6.67 7.36 6.34 4.72 6 2 C2.68539295 3.70892499 2.68539295 3.70892499 2.3125 7.125 C2.209375 8.07375 2.10625 9.0225 2 10 C1.34 10 0.68 10 0 10 C0 6.7 0 3.4 0 0 Z " fill="#E11313" transform="translate(179,401)"/>
<path d="M0 0 C0.99 0 1.98 0 3 0 C3.66 1.65 4.32 3.3 5 5 C5.99 3.35 6.98 1.7 8 0 C8.99 0.33 9.98 0.66 11 1 C9.68 3.97 8.36 6.94 7 10 C5.68 9.67 4.36 9.34 3 9 C1.953125 6.93359375 1.953125 6.93359375 1.25 4.4375 C1.00765625 3.61121094 0.7653125 2.78492188 0.515625 1.93359375 C0.34546875 1.29550781 0.1753125 0.65742188 0 0 Z " fill="#E11313" transform="translate(156,401)"/>
<path d="M0 0 C0.66 0 1.32 0 2 0 C2 0.66 2 1.32 2 2 C2.99 2 3.98 2 5 2 C5 2.66 5 3.32 5 4 C4.01 4 3.02 4 2 4 C2 5.98 2 7.96 2 10 C2.99 10 3.98 10 5 10 C5 10.66 5 11.32 5 12 C3.33388095 12.042721 1.66617115 12.04063832 0 12 C-1.56422584 10.43577416 -1.42160514 8.72073748 -1.6875 6.5625 C-1.79449219 5.75941406 -1.90148437 4.95632813 -2.01171875 4.12890625 C-2 2 -2 2 0 0 Z " fill="#E11313" transform="translate(249,399)"/>
<path d="M0 0 C0.33 0.66 0.66 1.32 1 2 C1.99 2 2.98 2 4 2 C4 2.66 4 3.32 4 4 C3.01 4 2.02 4 1 4 C1.33 5.65 1.66 7.3 2 9 C2.99 9.33 3.98 9.66 5 10 C5 10.66 5 11.32 5 12 C3.33388095 12.042721 1.66617115 12.04063832 0 12 C-1 11 -1 11 -1.0625 7.4375 C-1.041875 6.303125 -1.02125 5.16875 -1 4 C-1.66 3.67 -2.32 3.34 -3 3 C-2.01 2.01 -1.02 1.02 0 0 Z " fill="#E11313" transform="translate(349,399)"/>
<path d="M0 0 C0.99 0 1.98 0 3 0 C3 3.3 3 6.6 3 10 C2.01 10 1.02 10 0 10 C0 6.7 0 3.4 0 0 Z " fill="#E11313" transform="translate(292,401)"/>
<path d="M0 0 C0.99 0 1.98 0 3 0 C3 0.66 3 1.32 3 2 C2.01 2 1.02 2 0 2 C0 1.34 0 0.68 0 0 Z " fill="#E11313" transform="translate(292,398)"/>
</svg>
